<svg xmlns="http://www.w3.org/2000/svg" viewBox="0 0 457.01 275.36"><defs><style>.cls-1{fill:#04b0f5;}.cls-2{fill:#05a6d8;}.cls-3,.cls-4{fill:#fff;}.cls-3{stroke:#fff;stroke-miterlimit:10;stroke-width:2.25px;}</style></defs><title>DETS_whitebackground</title><g id="Layer_2" data-name="Layer 2"><g id="Layer_1-2" data-name="Layer 1"><path class="cls-1" d="M111.43,73.63a74.7,74.7,0,0,1-1.38,14.29A73.28,73.28,0,0,1,91.46,124a61.69,61.69,0,0,1-44.89,19.37H0l4.27-4.26.53-.53A49.73,49.73,0,0,1,40,124c12.71,0,25.13-5.14,34.63-13.45A51.74,51.74,0,0,0,89,90.48a44.43,44.43,0,0,0,2.9-12.34,51.21,51.21,0,0,0,0-8.93,50.39,50.39,0,0,0-50.19-46,53.79,53.79,0,0,1-20.59-4.09A53.86,53.86,0,0,1,3.62,7.49L0,3.87H46.93A60.9,60.9,0,0,1,91.22,23l.24.26a73.2,73.2,0,0,1,19.83,46C111.38,70.68,111.43,72.15,111.43,73.63Z"/><path class="cls-2" d="M89,90.48l21.1-2.56A73.28,73.28,0,0,1,91.46,124a61.69,61.69,0,0,1-44.89,19.37H0l4.27-4.26.53-.53A49.73,49.73,0,0,1,40,124c12.71,0,25.13-5.14,34.63-13.45A51.74,51.74,0,0,0,89,90.48Z"/><polygon class="cls-1" points="142.33 19.38 215.96 19.38 215.96 0 122.95 0 142.33 19.38"/><polygon class="cls-1" points="215.96 124.02 215.96 143.39 122.95 143.39 142.33 124.02 215.96 124.02"/><rect class="cls-1" x="142.95" y="65.88" width="73.01" height="19.38"/><polygon class="cls-2" points="151.99 85.26 215.96 75.08 215.96 85.26 151.99 85.26"/><polygon class="cls-2" points="142.33 124.02 215.96 124.02 215.96 143.39 122.95 143.39 142.33 124.02"/><polygon class="cls-1" points="318.08 0 318.08 23.25 267.7 23.25 267.7 143.39 248.32 143.39 248.32 0 318.08 0"/><polygon class="cls-2" points="248.32 71.16 267.7 68.81 267.7 143.39 248.32 143.39 248.32 71.16"/><path class="cls-1" d="M455.91,112.33c-4.29,18.88-22,31.93-41.32,31h-.21V124a7.71,7.71,0,0,0,1,0,20.36,20.36,0,0,0,20.35-20.35,19.05,19.05,0,0,0-.1-2c-.94-9.48-9.48-16.4-19-16.4h-37v0c-.66,0-1.36,0-2,0A40.75,40.75,0,0,1,340.82,62c-.31-.63-.6-1.28-.88-1.93a40.08,40.08,0,0,1-3.07-15.52A40.7,40.7,0,0,1,375.62,3.89V21.33a20.34,20.34,0,0,0-19.28,22.4,19.67,19.67,0,0,0,7.47,13.44A22.12,22.12,0,0,0,377.6,62h36.7v0c.66,0,1.35,0,2,0a40.56,40.56,0,0,1,36.74,23.25A40.92,40.92,0,0,1,455.91,112.33Z"/><path class="cls-2" d="M455.91,112.33c-4.29,18.88-22,31.93-41.32,31h-.21V124a7.71,7.71,0,0,0,1,0,20.36,20.36,0,0,0,20.35-20.35,19.05,19.05,0,0,0-.1-2c-.94-9.48-9.48-16.4-19-16.4h-37v0c-.66,0-1.36,0-2,0A40.75,40.75,0,0,1,340.82,62c-.31-.63-.6-1.28-.88-1.93l23.87-2.89A22.12,22.12,0,0,0,377.6,62h36.7v0c.66,0,1.35,0,2,0a40.56,40.56,0,0,1,36.74,23.25A40.92,40.92,0,0,1,455.91,112.33Z"/><path class="cls-3" d="M39.18,200.3c0,11.12-7.9,20.17-19,20.17H5V180.14H20.16C31.28,180.14,39.18,189.18,39.18,200.3Zm-3,0c0-9.56-6.51-17.28-16-17.28H8.06v34.57h12.1C29.67,217.59,36.18,209.87,36.18,200.3Z"/><path class="cls-3" d="M45.45,182.39a2.31,2.31,0,1,1,2.31,2.3A2.31,2.31,0,0,1,45.45,182.39Zm.87,9.27H49.2v28.81H46.32Z"/><path class="cls-3" d="M86.53,191.66v27.43c0,8.64-6.39,13.54-14.35,13.54-6.74,0-11.52-2.71-13.59-6.92l2.53-1.44c1.5,3.06,4.73,5.59,11.06,5.59,7.21,0,11.47-4.2,11.47-10.77v-5.3a13.66,13.66,0,0,1-12.39,7.31,15,15,0,0,1,0-30.07,13.65,13.65,0,0,1,12.39,7.32v-6.69Zm-2.88,14.41a12.22,12.22,0,1,0-12.21,12.27A12.13,12.13,0,0,0,83.65,206.07Z"/><path class="cls-3" d="M94.53,182.39a2.31,2.31,0,1,1,2.31,2.3A2.31,2.31,0,0,1,94.53,182.39Zm.87,9.27h2.88v28.81H95.4Z"/><path class="cls-3" d="M113.32,194.49v18.72c0,5.07,2.7,5.19,8.58,4.67v2.59c-7.55,1.15-11.52-.69-11.52-7.26V194.49H104v-2.83h6.34v-7.2l2.94-.86v8.06h8.58v2.83Z"/><path class="cls-3" d="M155.37,191.66v28.81h-2.94V214a13.84,13.84,0,0,1-12.38,7.14,15,15,0,0,1,0-30.07,13.84,13.84,0,0,1,12.38,7.14v-6.51Zm-2.94,14.41a12.19,12.19,0,1,0-12.15,12.27A12.08,12.08,0,0,0,152.43,206.07Z"/><path class="cls-3" d="M164.24,178.41h2.88v42.06h-2.88Z"/><path class="cls-3" d="M215.17,217.59v2.88H192V180.14h22.93V183H195v15.67h18.44v2.88H195v16Z"/><path class="cls-3" d="M249.79,180.14v40.33h-2.88v-6.68a13.65,13.65,0,0,1-12.38,7.31,15,15,0,0,1,0-30.07,13.64,13.64,0,0,1,12.38,7.32V180.14Zm-2.88,25.93a12.22,12.22,0,1,0-12.21,12.27A12.12,12.12,0,0,0,246.91,206.07Z"/><path class="cls-3" d="M282.28,191.66v28.81H279.4V215c-2.19,4.26-5.87,6.1-10.31,6.1-6.86,0-11.18-4.55-11.18-11.52V191.66h2.94v17.92c0,5.3,3,8.76,8.47,8.76,5.65,0,10.08-3.69,10.08-11.47V191.66Z"/><path class="cls-3" d="M289.19,206.07a14.76,14.76,0,0,1,15.16-15c5.64,0,10.48,2.88,12.56,7.37l-2.36,1.39a11,11,0,0,0-10.2-6,12.28,12.28,0,0,0,0,24.55,11.52,11.52,0,0,0,10.37-6l2.42,1.44a14.17,14.17,0,0,1-12.79,7.31A14.76,14.76,0,0,1,289.19,206.07Z"/><path class="cls-3" d="M351.47,191.66v28.81h-2.93V214a13.86,13.86,0,0,1-12.39,7.14,15,15,0,0,1,0-30.07,13.86,13.86,0,0,1,12.39,7.14v-6.51Zm-2.93,14.41a12.19,12.19,0,1,0-12.16,12.27A12.08,12.08,0,0,0,348.54,206.07Z"/><path class="cls-3" d="M366.51,194.49v18.72c0,5.07,2.7,5.19,8.58,4.67v2.59c-7.55,1.15-11.52-.69-11.52-7.26V194.49h-6.34v-2.83h6.34v-7.2l2.94-.86v8.06h8.58v2.83Z"/><path class="cls-3" d="M381.14,182.39a2.31,2.31,0,1,1,2.3,2.3A2.3,2.3,0,0,1,381.14,182.39Zm.86,9.27h2.88v28.81H382Z"/><path class="cls-3" d="M391.8,206.07a15.12,15.12,0,1,1,15.15,15A14.93,14.93,0,0,1,391.8,206.07Zm27.31,0A12.19,12.19,0,1,0,407,218.34,12.08,12.08,0,0,0,419.11,206.07Z"/><path class="cls-3" d="M453.32,202.55v17.92h-2.93V202.55c0-5.3-3.06-8.76-8.47-8.76-5.65,0-10.09,3.69-10.09,11.47v15.21H429V191.66h2.88v5.48c2.19-4.27,5.88-6.11,10.32-6.11C449,191,453.32,195.58,453.32,202.55Z"/><path class="cls-4" d="M22.54,267.48l-3.14-3.3a10.26,10.26,0,0,1-8.11,3.41c-5.35,0-8.85-2.94-8.85-7.64A8.49,8.49,0,0,1,7.84,252a7.75,7.75,0,0,1-2.17-5.32c0-4.46,3.64-7.14,7.68-7.14a7.83,7.83,0,0,1,7.57,5.12l-1.71,1a5.91,5.91,0,0,0-5.82-4.15c-3.22,0-5.63,2.09-5.63,5.08,0,2.21,1.28,3.77,3,5.47l8.5,8.89a15.63,15.63,0,0,0,1.63-5.4l1.82,1a16.89,16.89,0,0,1-2,5.86l3.73,3.92ZM18,262.71l-8.73-9.16a6.66,6.66,0,0,0-4.73,6.36c0,3.57,2.6,5.71,6.67,5.71A8.68,8.68,0,0,0,18,262.71Z"/><path class="cls-4" d="M55.83,242H47.29v25.22H45.2V242H36.66V240H55.83Z"/><path class="cls-4" d="M74.53,257.54c0,.32,0,.63,0,.94H56.91a7.9,7.9,0,0,0,8.23,7.25,7.37,7.37,0,0,0,6.71-3.53l1.71,1a9.56,9.56,0,0,1-8.46,4.38A10.13,10.13,0,0,1,65,247.34C70.84,247.34,74.53,252.23,74.53,257.54Zm-17.62-1h15.6c-.42-4.74-3.76-7.38-7.56-7.38A7.83,7.83,0,0,0,56.91,256.58Z"/><path class="cls-4" d="M77.75,257.47A9.93,9.93,0,0,1,88,247.34a9.09,9.09,0,0,1,8.46,5l-1.59.93a7.37,7.37,0,0,0-6.87-4,8.27,8.27,0,0,0,0,16.53,7.77,7.77,0,0,0,7-4l1.63,1A9.56,9.56,0,0,1,88,267.59,9.93,9.93,0,0,1,77.75,257.47Z"/><path class="cls-4" d="M117.24,255.1v12.07h-2V255.1c0-3.57-2.05-5.9-5.7-5.9-3.8,0-6.79,2.49-6.79,7.72v10.25h-1.94V240h1.94v11.44a7.31,7.31,0,0,1,7-4.11C114.33,247.34,117.24,250.41,117.24,255.1Z"/><path class="cls-4" d="M139.12,255.1v12.07h-2V255.1c0-3.57-2.06-5.9-5.71-5.9s-6.79,2.49-6.79,7.72v10.25h-1.94v-19.4h1.94v3.68a7.32,7.32,0,0,1,6.95-4.11C136.21,247.34,139.12,250.41,139.12,255.1Z"/><path class="cls-4" d="M143.27,257.47a10.19,10.19,0,1,1,10.21,10.12A10.05,10.05,0,0,1,143.27,257.47Zm18.39,0a8.21,8.21,0,1,0-8.18,8.26A8.13,8.13,0,0,0,161.66,257.47Z"/><path class="cls-4" d="M168.3,238.84h1.94v28.33H168.3Z"/><path class="cls-4" d="M174.89,257.47a10.19,10.19,0,1,1,10.2,10.12A10.05,10.05,0,0,1,174.89,257.47Zm18.39,0a8.21,8.21,0,1,0-8.19,8.26A8.14,8.14,0,0,0,193.28,257.47Z"/><path class="cls-4" d="M219.08,247.77v18.47c0,5.82-4.3,9.12-9.66,9.12-4.54,0-7.76-1.83-9.16-4.66l1.71-1c1,2.06,3.18,3.76,7.45,3.76,4.85,0,7.72-2.83,7.72-7.25v-3.57a9.2,9.2,0,0,1-8.34,4.92,10.13,10.13,0,0,1,0-20.25,9.19,9.19,0,0,1,8.34,4.93v-4.5Zm-1.94,9.7a8.23,8.23,0,1,0-8.22,8.26A8.17,8.17,0,0,0,217.14,257.47Z"/><path class="cls-4" d="M224.47,241.52a1.55,1.55,0,1,1,1.55,1.55A1.54,1.54,0,0,1,224.47,241.52Zm.58,6.25H227v19.4h-1.94Z"/><path class="cls-4" d="M231.65,257.47a9.93,9.93,0,0,1,10.2-10.13,9.08,9.08,0,0,1,8.46,5l-1.59.93a7.36,7.36,0,0,0-6.87-4,8.27,8.27,0,0,0,0,16.53,7.76,7.76,0,0,0,7-4l1.63,1a9.55,9.55,0,0,1-8.62,4.92A9.93,9.93,0,0,1,231.65,257.47Z"/><path class="cls-4" d="M273.59,247.77v19.4h-2v-4.39a9.33,9.33,0,0,1-8.34,4.81,10.13,10.13,0,0,1,0-20.25,9.33,9.33,0,0,1,8.34,4.81v-4.38Zm-2,9.7a8.21,8.21,0,1,0-8.19,8.26A8.14,8.14,0,0,0,271.61,257.47Z"/><path class="cls-4" d="M279.56,238.84h1.94v28.33h-1.94Z"/><path class="cls-4" d="M296.59,261.19l1.79-1.05c.93,3.26,3.68,5.48,8.14,5.48s6.83-2.33,6.83-5.44-2.87-4.5-7-5.82c-4.54-1.47-8.61-2.75-8.61-7.49,0-4.46,3.6-7.29,8.22-7.29a9.12,9.12,0,0,1,8.73,5.7l-1.74,1a7.15,7.15,0,0,0-7-4.69c-3.76,0-6.13,2.21-6.13,5.24,0,3.26,2.76,4.26,6.64,5.54,4.81,1.6,9,3.11,9,7.8,0,4.51-3.53,7.45-8.93,7.45C301.44,267.59,297.83,265,296.59,261.19Z"/><path class="cls-4" d="M319.32,257.47a10.19,10.19,0,1,1,10.21,10.12A10.05,10.05,0,0,1,319.32,257.47Zm18.4,0a8.21,8.21,0,1,0-8.19,8.26A8.14,8.14,0,0,0,337.72,257.47Z"/><path class="cls-4" d="M344.35,238.84h1.94v28.33h-1.94Z"/><path class="cls-4" d="M368.17,247.77v19.4h-1.94v-3.69a7.31,7.31,0,0,1-7,4.11c-4.61,0-7.52-3.06-7.52-7.76V247.77h2v12.06c0,3.57,2.05,5.9,5.7,5.9,3.8,0,6.79-2.48,6.79-7.72V247.77Z"/><path class="cls-4" d="M378.29,249.67v12.61c0,3.41,1.83,3.49,5.79,3.14v1.75c-5.09.77-7.76-.47-7.76-4.89V249.67h-4.27v-1.9h4.27v-4.85l2-.59v5.44h5.79v1.9Z"/><path class="cls-4" d="M388.15,241.52a1.55,1.55,0,1,1,1.55,1.55A1.54,1.54,0,0,1,388.15,241.52Zm.58,6.25h1.94v19.4h-1.94Z"/><path class="cls-4" d="M395.32,257.47a10.19,10.19,0,1,1,10.21,10.12A10.05,10.05,0,0,1,395.32,257.47Zm18.4,0a8.21,8.21,0,1,0-8.19,8.26A8.14,8.14,0,0,0,413.72,257.47Z"/><path class="cls-4" d="M436.76,255.1v12.07h-2V255.1c0-3.57-2-5.9-5.7-5.9s-6.79,2.49-6.79,7.72v10.25h-1.94v-19.4h1.94v3.68a7.3,7.3,0,0,1,6.94-4.11C433.85,247.34,436.76,250.41,436.76,255.1Z"/><path class="cls-4" d="M455.3,262.08c0,3.19-2.79,5.51-6.94,5.51-3.88,0-6.44-1.82-7.37-4.3l1.66-1c.7,2.09,2.8,3.41,5.71,3.41,2.71,0,5-1.2,5-3.65,0-5.27-11.75-2.25-11.75-9.23,0-3.07,2.64-5.51,6.59-5.51a6.85,6.85,0,0,1,6.6,3.88l-1.63.93a5.06,5.06,0,0,0-5-3c-2.52,0-4.65,1.32-4.65,3.65C443.55,258.05,455.3,255,455.3,262.08Z"/></g></g></svg>